<svg xmlns="http://www.w3.org/2000/svg" viewBox="0 0 64 64" role="img" aria-label="Nexora Budget icon">
  <defs>
    <linearGradient id="bg" x1="0%" y1="0%" x2="100%" y2="100%">
      <stop offset="0%" stop-color="#22D3EE" />
      <stop offset="100%" stop-color="#2563EB" />
    </linearGradient>
    <linearGradient id="accent" x1="0%" y1="0%" x2="100%" y2="100%">
      <stop offset="0%" stop-color="#34D399" />
      <stop offset="100%" stop-color="#10B981" />
    </linearGradient>
  </defs>
  <rect x="4" y="4" width="56" height="56" rx="16" fill="url(#bg)" />
  <path d="M18 40V24a2 2 0 0 1 2-2h9c8 0 13 4 13 10s-5 10-13 10h-9a2 2 0 0 1-2-2Z" fill="#0B1220" opacity=".9" />
  <path d="M24 36V28h5c4 0 6 1.3 6 4s-2 4-6 4h-5Z" fill="#E2E8F0" />
  <circle cx="47" cy="19" r="7" fill="url(#accent)" />
  <path d="M44 19h6M47 16v6" stroke="#06281F" stroke-width="2.2" stroke-linecap="round" />
</svg>
